<svg xmlns="http://www.w3.org/2000/svg" xmlns:xlink="http://www.w3.org/1999/xlink" width="1920" height="1080" viewBox="0 0 1920 1080">
  <defs>
    <clipPath id="clip-path">
      <rect id="Retângulo_2" data-name="Retângulo 2" width="1920" height="1080" style="mix-blend-mode: darken;isolation: isolate"/>
    </clipPath>
    <filter id="Elipse_6" x="-619.35" y="-908.89" width="1782.58" height="1860.98" filterUnits="userSpaceOnUse">
      <feOffset input="SourceAlpha"/>
      <feGaussianBlur stdDeviation="25" result="blur"/>
      <feFlood flood-color="#24ecd9" flood-opacity="0.161"/>
      <feComposite operator="in" in2="blur"/>
      <feComposite in="SourceGraphic"/>
    </filter>
    <filter id="circle_r" x="1182" y="605.5" width="183.5" height="193.5" filterUnits="userSpaceOnUse">
      <feOffset dx="20" dy="-30" input="SourceAlpha"/>
      <feGaussianBlur stdDeviation="0.5" result="blur-2"/>
      <feFlood flood-opacity="0.161"/>
      <feComposite operator="in" in2="blur-2"/>
      <feComposite in="SourceGraphic"/>
    </filter>
    <filter id="Elipse_4" x="771.5" y="351.5" width="378" height="378" filterUnits="userSpaceOnUse">
      <feOffset input="SourceAlpha"/>
      <feGaussianBlur stdDeviation="49.5" result="blur-3"/>
      <feFlood flood-color="#20ddcb" flood-opacity="0.161"/>
      <feComposite operator="in" in2="blur-3"/>
      <feComposite in="SourceGraphic"/>
    </filter>
    <filter id="circle_r-2" x="637.12" y="692.19" width="198.36" height="188.36" filterUnits="userSpaceOnUse">
      <feOffset dx="30" dy="20" input="SourceAlpha"/>
      <feGaussianBlur stdDeviation="0.5" result="blur-4"/>
      <feFlood flood-opacity="0.161"/>
      <feComposite operator="in" in2="blur-4"/>
      <feComposite in="SourceGraphic"/>
    </filter>
    <filter id="Elipse_9" x="883.65" y="-665.89" width="1782.58" height="1860.98" filterUnits="userSpaceOnUse">
      <feOffset input="SourceAlpha"/>
      <feGaussianBlur stdDeviation="25" result="blur-5"/>
      <feFlood flood-color="#24ecd9" flood-opacity="0.161"/>
      <feComposite operator="in" in2="blur-5"/>
      <feComposite in="SourceGraphic"/>
    </filter>
    <filter id="circle_r-3" x="760.891" y="90.427" width="270.463" height="235.463" filterUnits="userSpaceOnUse">
      <feOffset dx="-40" dy="5" input="SourceAlpha"/>
      <feGaussianBlur stdDeviation="0.5" result="blur-6"/>
      <feFlood flood-opacity="0.161"/>
      <feComposite operator="in" in2="blur-6"/>
      <feComposite in="SourceGraphic"/>
    </filter>
    <filter id="Elipse_10" x="111.65" y="491.11" width="1782.58" height="1860.98" filterUnits="userSpaceOnUse">
      <feOffset input="SourceAlpha"/>
      <feGaussianBlur stdDeviation="25" result="blur-7"/>
      <feFlood flood-color="#24ecd9" flood-opacity="0.161"/>
      <feComposite operator="in" in2="blur-7"/>
      <feComposite in="SourceGraphic"/>
    </filter>
  </defs>
  <g id="Web_1920_1" data-name="Web 1920 – 1" clip-path="url(#clip-path)">
    <rect id="Retângulo_1" data-name="Retângulo 1" width="1920" height="1080" fill="#7c7c7c"/>
    <g id="logo">
      <ellipse id="Elipse_8" data-name="Elipse 8" cx="450" cy="409" rx="450" ry="409" transform="translate(511 120)" fill="rgba(124,124,124,0)" opacity="0.16"/>
      <g transform="matrix(1, 0, 0, 1, 0, 0)" filter="url(#Elipse_6)">
        <g id="Elipse_6-2" data-name="Elipse 6" transform="translate(-544.35 -801.91) rotate(-1.15)" fill="#7c7c7c" stroke="#606b69" stroke-width="3">
          <ellipse cx="799.5" cy="839.5" rx="799.5" ry="839.5" stroke="none"/>
          <ellipse cx="799.5" cy="839.5" rx="798" ry="838" fill="none"/>
        </g>
      </g>
      <g transform="matrix(1, 0, 0, 1, 0, 0)" filter="url(#circle_r)">
        <circle id="circle_r-4" data-name="circle r" cx="81" cy="81" r="81" transform="translate(1182 637)" fill="#606b69"/>
      </g>
      <g transform="matrix(1, 0, 0, 1, 0, 0)" filter="url(#Elipse_4)">
        <circle id="Elipse_4-2" data-name="Elipse 4" cx="40.5" cy="40.5" r="40.5" transform="translate(920 500)" fill="#3b4645"/>
      </g>
      <g transform="matrix(1, 0, 0, 1, 0, 0)" filter="url(#circle_r-2)">
        <circle id="circle_r-5" data-name="circle r" cx="81" cy="81" r="81" transform="translate(799.12 692.19) rotate(88.28)" fill="#606b69"/>
      </g>
      <circle id="circle_r-6" data-name="circle r" cx="81" cy="81" r="81" transform="matrix(0.485, 0.875, -0.875, 0.485, 721.578, 637.919)" fill="#3b4645"/>
      <circle id="circle_r-7" data-name="circle r" cx="81" cy="81" r="81" transform="translate(1153 667)" fill="#3b4645"/>
      <g transform="matrix(1, 0, 0, 1, 0, 0)" filter="url(#Elipse_9)" style="mix-blend-mode: multiply;isolation: isolate">
        <g id="Elipse_9-2" data-name="Elipse 9" transform="translate(958.65 -558.91) rotate(-1.15)" fill="#fff" stroke="#606b69" stroke-width="3">
          <ellipse cx="799.5" cy="839.5" rx="799.5" ry="839.5" stroke="none"/>
          <ellipse cx="799.5" cy="839.5" rx="798" ry="838" fill="none"/>
        </g>
      </g>
      <g transform="matrix(1, 0, 0, 1, 0, 0)" filter="url(#circle_r-3)">
        <circle id="circle_r-8" data-name="circle r" cx="81" cy="81" r="81" transform="translate(920.87 319.39) rotate(-137)" fill="#606b69"/>
      </g>
      <circle id="circle_r-9" data-name="circle r" cx="81" cy="81" r="81" transform="matrix(-0.961, -0.276, 0.276, -0.961, 1014.08, 302.939)" fill="#3b4645"/>
      <g transform="matrix(1, 0, 0, 1, 0, 0)" filter="url(#Elipse_10)" style="mix-blend-mode: multiply;isolation: isolate">
        <g id="Elipse_10-2" data-name="Elipse 10" transform="translate(186.65 598.09) rotate(-1.15)" fill="#fff" stroke="#606b69" stroke-width="3">
          <ellipse cx="799.5" cy="839.5" rx="799.5" ry="839.5" stroke="none"/>
          <ellipse cx="799.5" cy="839.5" rx="798" ry="838" fill="none"/>
        </g>
      </g>
      <g id="Elipse_11" data-name="Elipse 11" transform="translate(499 68)" fill="none" stroke="#919191" stroke-width="2" opacity="0.5">
        <circle cx="461" cy="461" r="461" stroke="none"/>
        <circle cx="461" cy="461" r="460" fill="none"/>
      </g>
      <path id="Caminho_2" data-name="Caminho 2" d="M514.2,724.151l25.92,45.361,10.368,20.736,23.328,42.769L299.056,1150.54h-429.63L9.4,750.719Z" fill="#7c7c7c"/>
      <path id="Caminho_3" data-name="Caminho 3" d="M960,43.741h18.17l41.473,10.368h28.512l53.137,14.256,37.585-102.386H940.586Z" fill="#7c7c7c"/>
      <path id="Caminho_4" data-name="Caminho 4" d="M1236.08,928.922l55.729-49.249L1392.9,787.656V737.111l31.1-67.393,234.579,42.769,128.306,458.791-509.336-69.985Z" fill="#7c7c7c"/>
    </g>
  </g>
</svg>
